<svg xmlns="http://www.w3.org/2000/svg" width="151" height="151">
  <g fill="#FFF" fill-rule="evenodd">
    <path fill-rule="nonzero" d="M12.41 94.621a1.5 1.5 0 0 1 1.969.788c3.861 9.01 10.62 16.09 20.327 21.267a1.5 1.5 0 1 1-1.412 2.648c-10.292-5.49-17.534-13.076-21.673-22.733a1.5 1.5 0 0 1 .788-1.97ZM1.361 99.643a1.5 1.5 0 0 1 1.996.718c5.196 11.042 13.64 19.81 25.371 26.328a1.5 1.5 0 0 1-1.456 2.622C15.003 122.495 6.113 113.264.642 101.64a1.5 1.5 0 0 1 .72-1.996ZM100.488 38.085a1.5 1.5 0 0 1-1.803-1.117c-2.238-9.544-7.664-17.69-16.325-24.474a1.5 1.5 0 0 1 1.85-2.362c9.183 7.193 14.997 15.922 17.396 26.15a1.5 1.5 0 0 1-1.118 1.803ZM112.24 35.059a1.5 1.5 0 0 1-1.84-1.055c-3.2-11.776-9.993-21.877-20.415-30.333a1.5 1.5 0 0 1 1.89-2.33c10.899 8.843 18.05 19.478 21.42 31.877a1.5 1.5 0 0 1-1.055 1.84Z" opacity=".8"/>
    <path d="M56 123c23 19 38 41 65 17s23-38 20-57 6-41 9-42-4-13-15-9-12 18-12 23-7 15-17 5-36.079-44.232-40-48c-3.921-3.768-8.088-5.077-11-1-2.912 4.077-3 8 1 14s5.123 7.216 9.56 12.934c2.82 3.634 8.523 10.773 17.108 21.415A2.36 2.36 0 0 1 82.5 62.5a2.03 2.03 0 0 1-2.933-.064C58.464 39.39 46.608 25.912 44 22c-4-6-10.829-6.039-14-4-3.171 2.039-2 9 0 13 1.313 2.626 14.914 18.51 40.803 47.653.705.794.786 1.963.197 2.847a1.5 1.5 0 0 1-2.292.244C46.169 59.839 33.6 47.924 31 46c-3.974-2.941-8.65-3.656-11 0-2.35 3.656-1 9 1 12 1.333 2 6.87 7.537 16.61 16.61l24.115 24.115c.741.741.856 1.903.275 2.775a1.601 1.601 0 0 1-2.371.33C45.264 89.59 36.72 82.648 34 81c-4.21-2.548-8.26-3.055-11-1s-3 7-1 10 11 14 34 33Z"/>
  </g>
</svg>